<svg xmlns="http://www.w3.org/2000/svg" viewBox="0 0 5927.55 1708.96"><defs><style>.cls-1{fill:#fef48e;}.cls-2{fill:#39b54a;}</style></defs><g id="Layer_2" data-name="Layer 2"><g id="Motion"><path class="cls-1" d="M1485.25,279.34C2649.58,76.1,3172.85,883.43,3893.55,910.8s2559.11,408.26,1889.88,572.48-1021.13-129.14-1472,0-890.74,245.55-1308.62,51.41-450.87,42.65-967.72,16.34-186.95,149.1-736.79,157.87S-1428.92,788,1485.25,279.34Z"/><path class="cls-2" d="M1647.46,31.57c894.34-195.75,1296.26,581.8,1849.85,608.17S5463,1032.94,4948.94,1191.1s-784.34-124.38-1130.66,0-684.19,236.49-1005.17,49.51-346.31,41.08-743.31,15.74S1926.2,1400,1503.86,1408.4-590.95,521.48,1647.46,31.57Z"/></g></g></svg>